HIERARCHY
ROOT Hips
{
	OFFSET 0.000000 0.000000 0.000000
	CHANNELS 6 Xposition Yposition Zposition Xrotation Yrotation Zrotation
	JOINT LeftUpLeg_virtual
	{
		OFFSET 0.000000 0.000000 0.000000
		CHANNELS 3 Xrotation Yrotation Zrotation
		JOINT LeftUpLeg
		{
			OFFSET 10.205400 -3.823500 0.155100
			CHANNELS 3 Xrotation Yrotation Zrotation
			JOINT LeftLeg
			{
				OFFSET 0.708757 -12.982077 0.567790
				CHANNELS 3 Xrotation Yrotation Zrotation
				JOINT LeftFoot
				{
					OFFSET -0.708756 -10.717838 -2.184338
					CHANNELS 3 Xrotation Yrotation Zrotation
					JOINT LeftToeBase
					{
						OFFSET 0.108149 -7.191104 7.560241
						CHANNELS 3 Xrotation Yrotation Zrotation
						JOINT LeftToe_End
						{
							OFFSET 0.070230 0.081724 4.490308
							CHANNELS 3 Xrotation Yrotation Zrotation
							End Site
							{
								OFFSET 0 0 0
							}
						}
					}
				}
			}
		}
	}
	JOINT RightUpLeg_virtual
	{
		OFFSET 0.000000 0.000000 0.000000
		CHANNELS 3 Xrotation Yrotation Zrotation
		JOINT RightUpLeg
		{
			OFFSET -10.205400 -3.823500 0.005500
			CHANNELS 3 Xrotation Yrotation Zrotation
			JOINT RightLeg
			{
				OFFSET -0.708756 -12.982134 0.610632
				CHANNELS 3 Xrotation Yrotation Zrotation
				JOINT RightFoot
				{
					OFFSET 0.708754 -10.717769 -1.945823
					CHANNELS 3 Xrotation Yrotation Zrotation
					JOINT RightToeBase
					{
						OFFSET -0.108140 -7.191069 7.372968
						CHANNELS 3 Xrotation Yrotation Zrotation
						JOINT RightToe_End
						{
							OFFSET -0.070227 0.081735 4.479403
							CHANNELS 3 Xrotation Yrotation Zrotation
							End Site
							{
								OFFSET 0 0 0
							}
						}
					}
				}
			}
		}
	}
	JOINT Spine_virtual
	{
		OFFSET 0.000000 0.000000 0.000000
		CHANNELS 3 Xrotation Yrotation Zrotation
		JOINT Spine
		{
			OFFSET 0.000000 6.876099 0.125700
			CHANNELS 3 Xrotation Yrotation Zrotation
			JOINT Spine1
			{
				OFFSET 0.000000 5.730043 0.104720
				CHANNELS 3 Xrotation Yrotation Zrotation
				JOINT Spine1_split
				{
					OFFSET 0.000000 5.730043 0.104720
					CHANNELS 3 Xrotation Yrotation Zrotation
					JOINT Spine2
					{
						OFFSET 0.000000 5.730043 0.104720
						CHANNELS 3 Xrotation Yrotation Zrotation
						JOINT Neck_virtual
						{
							OFFSET 0.000000 0.000000 0.000000
							CHANNELS 3 Xrotation Yrotation Zrotation
							JOINT Neck
							{
								OFFSET 0.000000 10.314075 0.188496
								CHANNELS 3 Xrotation Yrotation Zrotation
								JOINT Head
								{
									OFFSET 0.000000 7.643700 -2.377400
									CHANNELS 3 Xrotation Yrotation Zrotation
									JOINT HeadTop_End
									{
										OFFSET 0.000000 43.788605 -13.619600
										CHANNELS 3 Xrotation Yrotation Zrotation
										End Site
										{
											OFFSET 0 0 0
										}
									}
								}
							}
						}
						JOINT LeftShoulder_virtual
						{
							OFFSET 0.000000 0.000000 0.000000
							CHANNELS 3 Xrotation Yrotation Zrotation
							JOINT LeftShoulder
							{
								OFFSET 2.196100 4.412489 0.087492
								CHANNELS 3 Xrotation Yrotation Zrotation
								JOINT LeftShoulder_split
								{
									OFFSET 2.196100 4.412489 0.087492
									CHANNELS 3 Xrotation Yrotation Zrotation
									JOINT LeftArm
									{
										OFFSET 8.771219 -2.981674 -0.026999
										CHANNELS 3 Xrotation Yrotation Zrotation
										JOINT LeftForeArm
										{
											OFFSET 8.512804 0.000000 -0.000000
											CHANNELS 3 Xrotation Yrotation Zrotation
											JOINT LeftHand
											{
												OFFSET 18.484802 0.000000 -0.000000
												CHANNELS 3 Xrotation Yrotation Zrotation
												End Site
												{
													OFFSET 0 0 0
												}
											}
										}
									}
								}
							}
						}
						JOINT RightShoulder_virtual
						{
							OFFSET 0.000000 0.000000 0.000000
							CHANNELS 3 Xrotation Yrotation Zrotation
							JOINT RightShoulder
							{
								OFFSET -2.196100 4.412496 0.070690
								CHANNELS 3 Xrotation Yrotation Zrotation
								JOINT RightShoulder_split
								{
									OFFSET -2.196100 4.412496 0.070690
									CHANNELS 3 Xrotation Yrotation Zrotation
									JOINT RightArm
									{
										OFFSET -8.771282 -2.981682 -0.094208
										CHANNELS 3 Xrotation Yrotation Zrotation
										JOINT RightForeArm
										{
											OFFSET -8.494598 0.000000 0.000000
											CHANNELS 3 Xrotation Yrotation Zrotation
											JOINT RightHand
											{
												OFFSET -18.483803 0.000000 0.000001
												CHANNELS 3 Xrotation Yrotation Zrotation
												End Site
												{
													OFFSET 0 0 0
												}
											}
										}
									}
								}
							}
						}
					}
				}
			}
		}
	}
}
MOTION
Frames: 4
Frame Time: 0.03333333
7.026283 12.976789 -4.343773 0.000000 0.000000 0.000000 3.725573 -24.301678 9.803485 -94.502634 -24.387385 42.757073 76.883089 -12.101149 0.473828 47.387689 14.441882 -36.018412 -2.001523 -5.012930 -0.587995 0.000000 0.000000 0.000000 1.527217 -22.873424 9.214073 -19.728639 -10.264463 -34.069233 123.041569 25.376147 -19.050192 16.024986 -34.814126 51.723004 16.344877 4.623804 -25.191102 0.000000 0.000000 0.000000 1.431471 -13.938593 8.900187 7.232245 -2.514930 -6.403553 2.838202 -7.195091 -0.211789 0.160661 -0.149315 0.031155 0.000000 0.000000 0.000000 3.039772 -4.674697 -0.974124 -3.570018 8.036109 9.114175 -9.970097 10.439774 1.009731 0.000000 0.000000 0.000000 2.178644 -6.128649 -1.464485 3.353910 -1.558597 -0.704084 -1.566069 1.051680 -0.916986 -0.879030 -13.995821 -45.579208 58.563271 -81.626635 52.131904 0.000000 0.000000 0.000000 4.916719 -5.651522 -1.290112 1.839200 5.690202 5.653812 0.386809 5.579883 5.171479 -26.962815 2.816907 28.965463 -123.004235 76.951356 136.169998 0.000000 0.000000 0.000000 
7.008676 12.997310 -4.352180 0.000000 0.000000 0.000000 3.703274 -24.330309 9.893777 -94.278214 -24.265388 42.825259 76.644722 -11.990640 0.313598 47.430920 14.595751 -35.852814 -2.045394 -5.015752 -0.691345 0.000000 0.000000 0.000000 1.485485 -22.938419 9.305656 -19.916073 -10.324699 -34.019144 123.028277 25.283306 -19.003459 16.123295 -34.679558 51.467343 16.895538 4.495365 -25.261258 0.000000 0.000000 0.000000 1.311860 -13.979893 8.952475 7.263043 -2.224800 -6.627442 2.760917 -7.238034 -0.297924 0.147940 -0.120026 0.025417 0.000000 0.000000 0.000000 2.919358 -4.741133 -1.063282 -3.985591 7.669113 9.180875 -9.678183 11.391389 1.297686 0.000000 0.000000 0.000000 2.055426 -6.190893 -1.537499 3.330420 -1.756286 -0.120929 -1.580502 1.139909 -0.996797 -0.505827 -13.859180 -45.968041 56.115666 -81.538307 49.751689 0.000000 0.000000 0.000000 4.771678 -5.707436 -1.369225 1.918237 5.984239 6.005592 0.521061 5.686840 5.276275 -25.332338 3.609118 27.014392 -136.264542 74.987363 149.155444 0.000000 0.000000 0.000000 
6.991499 13.008943 -4.360764 0.000000 0.000000 0.000000 3.665939 -24.361184 9.942686 -94.096654 -24.160478 42.929904 76.464159 -11.911269 0.176936 47.492522 14.662692 -35.688432 -2.078261 -5.017210 -0.783510 0.000000 0.000000 0.000000 1.433243 -22.994967 9.348286 -20.001700 -10.429110 -33.909997 122.984345 25.191119 -18.971554 16.216628 -34.526070 51.255321 17.453404 4.367935 -25.348984 0.000000 0.000000 0.000000 1.201704 -14.025267 8.971907 7.299601 -1.955762 -6.825175 2.669442 -7.284025 -0.393533 0.129823 -0.103679 0.014794 0.000000 0.000000 0.000000 2.802043 -4.811427 -1.150222 -4.374107 7.365635 9.213735 -9.330555 12.376900 1.515202 0.000000 0.000000 0.000000 1.920241 -6.255916 -1.620279 3.285369 -1.881400 0.362481 -1.614582 1.201898 -1.090118 -0.252435 -13.721977 -46.286351 53.818619 -81.359595 47.491542 0.000000 0.000000 0.000000 4.616257 -5.766194 -1.458907 2.001938 6.336944 6.410712 0.642910 5.807334 5.482612 -24.128948 4.107193 25.320826 -145.315048 72.662722 157.974366 0.000000 0.000000 0.000000 
6.972091 13.011932 -4.370890 0.000000 0.000000 0.000000 3.599366 -24.384537 9.935235 -93.956048 -24.065758 43.082480 76.350969 -11.855832 0.068962 47.568378 14.657299 -35.494932 -2.116213 -5.020932 -0.837245 0.000000 0.000000 0.000000 1.357077 -23.011338 9.330907 -19.965539 -10.597200 -33.737644 122.909104 25.095153 -18.940779 16.304780 -34.385194 51.086318 17.992383 4.249309 -25.457560 0.000000 0.000000 0.000000 1.080138 -14.068556 8.946084 7.340928 -1.705456 -7.005349 2.577985 -7.320978 -0.499795 0.124360 -0.095505 0.005216 0.000000 0.000000 0.000000 2.697621 -4.874855 -1.239789 -4.753919 7.137193 9.226080 -9.012546 13.430817 1.666251 0.000000 0.000000 0.000000 1.794952 -6.312464 -1.713571 3.217496 -1.944388 0.777451 -1.637691 1.257745 -1.141942 -0.101684 -13.607057 -46.554839 51.719886 -81.119356 45.398072 0.000000 0.000000 0.000000 4.476911 -5.815916 -1.558167 2.077626 6.762346 6.895813 0.852905 5.920644 5.703920 -23.016942 4.568481 23.756636 -151.450197 70.344849 163.939949 0.000000 0.000000 0.000000 
